<?xml version="1.0" encoding="UTF-8"?>
<!DOCTYPE svg PUBLIC "-//W3C//DTD SVG 1.1//EN" "http://www.w3.org/Graphics/SVG/1.1/DTD/svg11.dtd">
<svg xmlns="http://www.w3.org/2000/svg" version="1.1" width="868px" height="790px" style="shape-rendering:geometricPrecision; text-rendering:geometricPrecision; image-rendering:optimizeQuality; fill-rule:evenodd; clip-rule:evenodd" xmlns:xlink="http://www.w3.org/1999/xlink">
<g><path style="opacity:0.974" fill="#fdfdfd" d="M 751.5,81.5 C 771.319,81.8537 785.486,90.8537 794,108.5C 809.419,170.966 810.419,233.633 797,296.5C 793.744,309.846 787.244,321.346 777.5,331C 681.853,400.49 585.853,469.49 489.5,538C 498.008,551.179 504.174,565.345 508,580.5C 508.64,590.273 506.307,599.273 501,607.5C 483.203,630.297 463.037,650.797 440.5,669C 418.861,685.331 398.361,684.164 379,665.5C 370.74,654.651 362.24,643.984 353.5,633.5C 340.54,643.791 327.874,654.457 315.5,665.5C 310.903,684.203 301.57,700.037 287.5,713C 275.67,721.418 263.337,729.085 250.5,736C 217.864,746.335 187.864,741.335 160.5,721C 131.992,693.137 121.825,659.637 130,620.5C 144.095,575.191 174.928,553.025 222.5,554C 232.315,542.684 242.315,531.518 252.5,520.5C 245.65,513.484 238.983,506.317 232.5,499C 196.2,500.893 159.867,501.559 123.5,501C 99.534,499.195 75.8673,495.529 52.5,490C 35.8054,483.354 29.9721,471.52 35,454.5C 37.5,450.667 40.6667,447.5 44.5,445C 53.9812,441.904 63.6478,439.57 73.5,438C 128.679,432.909 183.679,429.409 238.5,427.5C 238.95,423.768 240.617,420.602 243.5,418C 247.493,415.465 251.659,414.298 256,414.5C 262.042,408.127 267.708,401.46 273,394.5C 276.867,390.154 281.367,386.654 286.5,384C 262.509,382.251 238.509,380.584 214.5,379C 202.736,377.559 191.402,374.559 180.5,370C 167.427,361.785 163.261,350.285 168,335.5C 173.281,325.904 181.448,320.737 192.5,320C 215.645,317.348 238.645,315.681 261.5,315C 310.752,314.03 359.752,314.864 408.5,317.5C 410.167,317.167 411.833,316.833 413.5,316.5C 420.712,306.577 428.045,296.744 435.5,287C 416.465,287.362 397.799,285.028 379.5,280C 363.997,271.822 358.83,259.322 364,242.5C 371.652,233.591 381.486,228.758 393.5,228C 423.194,226.441 452.86,224.608 482.5,222.5C 488.858,216.471 494.525,209.804 499.5,202.5C 498.975,201.808 498.308,201.308 497.5,201C 430.606,200.066 363.439,197.233 296,192.5C 285.508,193.137 275.008,191.97 264.5,189C 247.997,181.826 242.497,169.659 248,152.5C 253.954,143.427 262.454,138.261 273.5,137C 297.651,132.502 321.984,129.502 346.5,128C 402.219,127.274 457.552,126.941 512.5,127C 526.494,127.482 540.327,128.982 554,131.5C 561.99,127.57 569.657,128.237 577,133.5C 633.798,111.175 691.965,93.8412 751.5,81.5 Z M 337.5,386.5 C 343.768,385.617 350.102,385.283 356.5,385.5C 358.535,386.041 360.535,386.708 362.5,387.5C 360.727,390.06 358.727,392.393 356.5,394.5C 350.49,391.053 344.157,388.386 337.5,386.5 Z"/></g>
<g><path style="opacity:1" fill="#020202" d="M 747.5,100.5 C 759.461,98.9782 768.961,102.978 776,112.5C 786.233,151.848 789.899,191.848 787,232.5C 786.497,254.204 783.497,275.537 778,296.5C 775.861,302.112 773.194,307.446 770,312.5C 743.5,332.333 717,352.167 690.5,372C 616.088,425.289 541.588,478.456 467,531.5C 466.333,532.5 466.333,533.5 467,534.5C 474.781,547.729 481.781,561.395 488,575.5C 489.506,580.746 489.839,586.079 489,591.5C 472.008,615.497 451.841,636.664 428.5,655C 424.5,657 420.5,659 416.5,661C 410.574,662.11 404.908,661.444 399.5,659C 383.893,642.231 369.226,624.731 355.5,606.5C 336.814,623.02 317.981,639.353 299,655.5C 295.574,674.536 286.408,690.036 271.5,702C 259.009,710.579 245.675,717.579 231.5,723C 183.389,725.208 154.889,702.708 146,655.5C 142.258,621.482 155.092,595.982 184.5,579C 199.296,572.893 214.629,570.893 230.5,573C 246.003,554.999 262.003,537.499 278.5,520.5C 265.596,507.432 252.929,494.265 240.5,481C 202.502,481.741 164.502,482.407 126.5,483C 104.67,481.063 83.0035,478.063 61.5,474C 57.7257,472.698 54.559,470.531 52,467.5C 51.2025,465.741 51.3691,464.074 52.5,462.5C 59.4504,459.095 66.7837,456.928 74.5,456C 116.773,452.152 159.106,449.152 201.5,447C 218.523,446.44 235.523,446.44 252.5,447C 264.613,433.884 276.113,420.384 287,406.5C 296.33,396.218 307.496,393.718 320.5,399C 334.95,404.141 348.45,410.974 361,419.5C 373.5,403 386,386.5 398.5,370C 352.525,367.495 306.525,365.495 260.5,364C 243.461,363.137 226.461,361.804 209.5,360C 202.595,358.81 195.929,356.81 189.5,354C 182.889,348.82 182.889,343.82 189.5,339C 210.716,335.913 232.05,334.246 253.5,334C 308.038,332.781 362.538,333.615 417,336.5C 418.833,336.167 420.667,335.833 422.5,335.5C 438.923,312.988 455.59,290.655 472.5,268.5C 447.146,267.921 421.812,267.088 396.5,266C 389.888,265.614 384.722,262.781 381,257.5C 380.333,255.5 380.333,253.5 381,251.5C 383.469,249.348 386.302,247.848 389.5,247C 424.575,245.519 459.575,243.019 494.5,239.5C 507.994,221.832 521.328,203.998 534.5,186C 524.571,184.34 514.571,183.34 504.5,183C 427.755,181.438 351.088,178.104 274.5,173C 266.519,171.709 263.352,167.209 265,159.5C 266.935,157.898 269.101,156.731 271.5,156C 303.188,149.664 335.188,146.33 367.5,146C 418.833,145.333 470.167,145.333 521.5,146C 540.009,147.272 558.342,149.772 576.5,153.5C 632.168,131.164 689.168,113.497 747.5,100.5 Z"/></g>
<g><path style="opacity:1" fill="#fdfdfd" d="M 624.5,257.5 C 623.457,260.056 621.79,262.223 619.5,264C 608.998,273.003 598.665,282.17 588.5,291.5C 583.353,289.687 578.686,290.521 574.5,294C 519.371,348.286 465.371,403.619 412.5,460C 411.5,460.667 410.5,460.667 409.5,460C 403.959,454.291 398.292,448.791 392.5,443.5C 453.069,359.531 514.736,276.365 577.5,194C 622.248,175.588 667.914,160.754 714.5,149.5C 701.846,162.322 689.346,175.322 677,188.5C 660.074,208.763 642.407,228.43 624,247.5C 621.991,250.95 622.158,254.283 624.5,257.5 Z"/></g>
<g><path style="opacity:1" fill="#bfcadb" d="M 588.5,291.5 C 598.665,282.17 608.998,273.003 619.5,264C 621.79,262.223 623.457,260.056 624.5,257.5C 628.447,258.912 632.114,258.246 635.5,255.5C 644.98,247.855 654.313,240.021 663.5,232C 691.316,206.351 718.316,179.851 744.5,152.5C 749.626,189.46 749.793,226.46 745,263.5C 744.117,271.754 742.284,279.754 739.5,287.5C 641.608,358.281 544.608,430.281 448.5,503.5C 441.719,494.879 434.719,486.379 427.5,478C 480.086,420.357 533.253,363.191 587,306.5C 590.769,301.664 591.269,296.664 588.5,291.5 Z"/></g>
<g><path style="opacity:0.966" fill="#fdfdfd" d="M 288.5,225.5 C 301.216,225.094 312.882,228.261 323.5,235C 334.615,248.96 333.948,262.293 321.5,275C 318.661,276.92 315.661,278.587 312.5,280C 302.343,283.036 292.176,284.536 282,284.5C 257.987,289.844 234.487,288.011 211.5,279C 197.081,271.55 192.581,260.05 198,244.5C 204.899,235.053 213.899,231.387 225,233.5C 246.274,230.945 267.44,228.278 288.5,225.5 Z"/></g>
<g><path style="opacity:1" fill="#040404" d="M 280.5,244.5 C 287.508,244.334 294.508,244.5 301.5,245C 310.924,246.047 314.09,250.88 311,259.5C 306.942,262.3 302.442,264.134 297.5,265C 278.233,267.51 258.9,268.51 239.5,268C 233.128,266.49 226.795,264.824 220.5,263C 217.487,261.321 215.154,258.987 213.5,256C 214.101,254.395 215.101,253.062 216.5,252C 238.088,250.467 259.422,247.967 280.5,244.5 Z"/></g>
<g><path style="opacity:1" fill="#fce560" d="M 406.5,513.5 C 403.834,543.43 402.834,573.43 403.5,603.5C 365.482,557.879 325.815,513.546 284.5,470.5C 293.5,459.833 302.5,449.167 311.5,438.5C 312.365,437.417 313.365,437.251 314.5,438C 329.947,445.224 344.28,454.224 357.5,465C 375.073,480.046 391.407,496.213 406.5,513.5 Z"/></g>
<g><path style="opacity:1" fill="#fbac33" d="M 406.5,513.5 C 422.534,534.371 436.2,556.871 447.5,581C 437.921,593.915 426.921,605.582 414.5,616C 413.551,616.617 412.718,616.451 412,615.5C 409.336,611.343 406.503,607.343 403.5,603.5C 402.834,573.43 403.834,543.43 406.5,513.5 Z"/></g>
<g><path style="opacity:1" fill="#b56d4e" d="M 323.5,570.5 C 309.547,580.119 297.547,591.786 287.5,605.5C 281.485,599.485 275.151,593.818 268.5,588.5C 280.351,575.816 292.018,562.983 303.5,550C 306.436,550.893 308.936,552.726 311,555.5C 315.378,560.373 319.545,565.373 323.5,570.5 Z"/></g>
<g><path style="opacity:1" fill="#713d38" d="M 323.5,570.5 C 325.463,571.96 327.296,573.627 329,575.5C 329.684,576.784 329.517,577.951 328.5,579C 315.72,589.479 303.22,600.312 291,611.5C 289.558,609.609 288.391,607.609 287.5,605.5C 297.547,591.786 309.547,580.119 323.5,570.5 Z"/></g>
<g><path style="opacity:1" fill="#fbe45f" d="M 229.5,613.5 C 211.285,627.052 197.952,644.385 189.5,665.5C 185.82,659.438 184.154,652.772 184.5,645.5C 185.613,620.556 198.613,609.39 223.5,612C 225.518,612.505 227.518,613.005 229.5,613.5 Z"/></g>
<g><path style="opacity:1" fill="#fcad33" d="M 229.5,613.5 C 243.607,616.127 253.774,623.794 260,636.5C 262.113,649.491 258.613,660.658 249.5,670C 239.932,676.784 229.598,681.951 218.5,685.5C 208.525,683.93 200.025,679.596 193,672.5C 191.295,670.423 190.128,668.09 189.5,665.5C 197.952,644.385 211.285,627.052 229.5,613.5 Z"/></g>
</svg>
